# xmcd
#
# Track frame offsets:
#	150
#	15122
#	27427
#	39062
#	54585
#	67975
#	82967
#	94815
#	108567
#	129232
#	142182
#	158300
#
# Disc length: 2293 seconds
#
# Revision: 1
# Processed by: cddbd v1.5.1PL0 Copyright (c) Steve Scherf et al.
# Submitted via: audiograbber 1.83.01
#
DISCID=8608f30c
DTITLE=Nice guys - Something for you
DYEAR=1992
DGENRE=Blues
TTITLE0=Something for you
TTITLE1=Good man in love
TTITLE2=My baby
TTITLE3=I need a woman
TTITLE4=It's hard
TTITLE5=Last call
TTITLE6=Complicated
TTITLE7=Mother
TTITLE8=Lonely boy
TTITLE9=Coming home
TTITLE10=Can't stop crying
TTITLE11=Stick to you
EXTD=
EXTT0=
EXTT1=
EXTT2=
EXTT3=
EXTT4=
EXTT5=
EXTT6=
EXTT7=
EXTT8=
EXTT9=
EXTT10=
EXTT11=
PLAYORDER=
